<?xml version="1.0" encoding="UTF-8" standalone="no"?>
<!DOCTYPE svg PUBLIC "-//W3C//DTD SVG 1.1//EN"
 "http://www.w3.org/Graphics/SVG/1.1/DTD/svg11.dtd">
<!-- Generated by graphviz version 2.48.0 (20210717.1556)
 -->
<!-- Title: EF_CoreDapperTuto.API.Controllers.EmployeeController Pages: 1 -->
<svg width="184pt" height="336pt"
 viewBox="0.00 0.00 184.00 336.00" xmlns="http://www.w3.org/2000/svg" xmlns:xlink="http://www.w3.org/1999/xlink">
<g id="graph0" class="graph" transform="scale(1 1) rotate(0) translate(4 332)">
<title>EF_CoreDapperTuto.API.Controllers.EmployeeController</title>
<polygon fill="white" stroke="transparent" points="-4,4 -4,-332 180,-332 180,4 -4,4"/>
<!-- Node1 -->
<g id="node1" class="node">
<title>Node1</title>
<g id="a_node1"><a xlink:title="Receives the HTTP requests relative to the Employees">
<polygon fill="#bfbfbf" stroke="black" points="0,-0.5 0,-233.5 176,-233.5 176,-0.5 0,-0.5"/>
<text text-anchor="start" x="8" y="-221.5" font-family="Helvetica,sans-Serif" font-size="10.00">EF_CoreDapperTuto.API.Controllers.</text>
<text text-anchor="middle" x="88" y="-210.5" font-family="Helvetica,sans-Serif" font-size="10.00">EmployeeController</text>
<polyline fill="none" stroke="black" points="0,-203.5 176,-203.5 "/>
<text text-anchor="start" x="8" y="-191.5" font-family="Helvetica,sans-Serif" font-size="10.00">+ IApplicationDbContext</text>
<text text-anchor="start" x="8" y="-180.5" font-family="Helvetica,sans-Serif" font-size="10.00"> DbContext</text>
<text text-anchor="start" x="8" y="-169.5" font-family="Helvetica,sans-Serif" font-size="10.00">+ IApplicationReadDbConnection</text>
<text text-anchor="start" x="8" y="-158.5" font-family="Helvetica,sans-Serif" font-size="10.00"> ReadDbConnection</text>
<text text-anchor="start" x="8" y="-147.5" font-family="Helvetica,sans-Serif" font-size="10.00">+ IApplicationWriteDbConnection</text>
<text text-anchor="start" x="8" y="-136.5" font-family="Helvetica,sans-Serif" font-size="10.00"> WriteDbConnection</text>
<polyline fill="none" stroke="black" points="0,-129.5 176,-129.5 "/>
<text text-anchor="start" x="8" y="-117.5" font-family="Helvetica,sans-Serif" font-size="10.00">+ EmployeeController</text>
<text text-anchor="start" x="8" y="-106.5" font-family="Helvetica,sans-Serif" font-size="10.00">(IApplicationDbContext</text>
<text text-anchor="start" x="8" y="-95.5" font-family="Helvetica,sans-Serif" font-size="10.00"> dbContext, IApplicationRead</text>
<text text-anchor="start" x="8" y="-84.5" font-family="Helvetica,sans-Serif" font-size="10.00">DbConnection readDbConnection,</text>
<text text-anchor="start" x="8" y="-73.5" font-family="Helvetica,sans-Serif" font-size="10.00"> IApplicationWriteDbConnection</text>
<text text-anchor="start" x="8" y="-62.5" font-family="Helvetica,sans-Serif" font-size="10.00"> writeDbConnection)</text>
<text text-anchor="start" x="8" y="-51.5" font-family="Helvetica,sans-Serif" font-size="10.00">+ async Task&lt; IActionResult</text>
<text text-anchor="start" x="8" y="-40.5" font-family="Helvetica,sans-Serif" font-size="10.00"> &gt; GetAllEmployees()</text>
<text text-anchor="start" x="8" y="-29.5" font-family="Helvetica,sans-Serif" font-size="10.00">+ async Task&lt; IActionResult</text>
<text text-anchor="start" x="8" y="-18.5" font-family="Helvetica,sans-Serif" font-size="10.00"> &gt; GetAllEmployeesById</text>
<text text-anchor="start" x="8" y="-7.5" font-family="Helvetica,sans-Serif" font-size="10.00">(int id)</text>
</a>
</g>
</g>
<!-- Node2 -->
<g id="node2" class="node">
<title>Node2</title>
<g id="a_node2"><a xlink:title=" ">
<polygon fill="white" stroke="#bfbfbf" points="48,-270.5 48,-327.5 128,-327.5 128,-270.5 48,-270.5"/>
<text text-anchor="middle" x="88" y="-315.5" font-family="Helvetica,sans-Serif" font-size="10.00">ControllerBase</text>
<polyline fill="none" stroke="#bfbfbf" points="48,-308.5 128,-308.5 "/>
<text text-anchor="middle" x="88" y="-296.5" font-family="Helvetica,sans-Serif" font-size="10.00"> </text>
<polyline fill="none" stroke="#bfbfbf" points="48,-289.5 128,-289.5 "/>
<text text-anchor="middle" x="88" y="-277.5" font-family="Helvetica,sans-Serif" font-size="10.00"> </text>
</a>
</g>
</g>
<!-- Node2&#45;&gt;Node1 -->
<g id="edge1" class="edge">
<title>Node2&#45;&gt;Node1</title>
<path fill="none" stroke="midnightblue" d="M88,-260.14C88,-252.03 88,-243.05 88,-233.67"/>
<polygon fill="none" stroke="midnightblue" points="84.5,-260.27 88,-270.27 91.5,-260.27 84.5,-260.27"/>
</g>
</g>
</svg>
