<?xml version="1.0" encoding="UTF-8" standalone="no"?>
<!DOCTYPE svg PUBLIC "-//W3C//DTD SVG 1.1//EN"
 "http://www.w3.org/Graphics/SVG/1.1/DTD/svg11.dtd">
<!-- Generated by graphviz version 2.48.0 (20210717.1556)
 -->
<!-- Title: EF_CoreDapperTuto.Persistence.Contexts.ApplicationDbContext Pages: 1 -->
<svg width="272pt" height="281pt"
 viewBox="0.00 0.00 271.50 281.00" xmlns="http://www.w3.org/2000/svg" xmlns:xlink="http://www.w3.org/1999/xlink">
<g id="graph0" class="graph" transform="scale(1 1) rotate(0) translate(4 277)">
<title>EF_CoreDapperTuto.Persistence.Contexts.ApplicationDbContext</title>
<polygon fill="white" stroke="transparent" points="-4,4 -4,-277 267.5,-277 267.5,4 -4,4"/>
<!-- Node1 -->
<g id="node1" class="node">
<title>Node1</title>
<g id="a_node1"><a xlink:title="Defines the parameters of the context to the DB">
<polygon fill="#bfbfbf" stroke="black" points="18,-0.5 18,-123.5 184,-123.5 184,-0.5 18,-0.5"/>
<text text-anchor="start" x="26" y="-111.5" font-family="Helvetica,sans-Serif" font-size="10.00">EF_CoreDapperTuto.Persistence.</text>
<text text-anchor="middle" x="101" y="-100.5" font-family="Helvetica,sans-Serif" font-size="10.00">Contexts.ApplicationDbContext</text>
<polyline fill="none" stroke="black" points="18,-93.5 184,-93.5 "/>
<text text-anchor="start" x="26" y="-81.5" font-family="Helvetica,sans-Serif" font-size="10.00">+ DbSet&lt; Employee &gt; Employees</text>
<text text-anchor="start" x="26" y="-70.5" font-family="Helvetica,sans-Serif" font-size="10.00">+ DbSet&lt; Department &gt;</text>
<text text-anchor="start" x="26" y="-59.5" font-family="Helvetica,sans-Serif" font-size="10.00"> Departments</text>
<text text-anchor="start" x="26" y="-48.5" font-family="Helvetica,sans-Serif" font-size="10.00">+ IDbConnection Connection</text>
<polyline fill="none" stroke="black" points="18,-41.5 184,-41.5 "/>
<text text-anchor="start" x="26" y="-29.5" font-family="Helvetica,sans-Serif" font-size="10.00">+ ApplicationDbContext</text>
<text text-anchor="start" x="26" y="-18.5" font-family="Helvetica,sans-Serif" font-size="10.00">(DbContextOptions&lt; Application</text>
<text text-anchor="start" x="26" y="-7.5" font-family="Helvetica,sans-Serif" font-size="10.00">DbContext &gt; options)</text>
</a>
</g>
</g>
<!-- Node2 -->
<g id="node2" class="node">
<title>Node2</title>
<g id="a_node2"><a xlink:title=" ">
<polygon fill="white" stroke="#bfbfbf" points="0,-188 0,-245 62,-245 62,-188 0,-188"/>
<text text-anchor="middle" x="31" y="-233" font-family="Helvetica,sans-Serif" font-size="10.00">DbContext</text>
<polyline fill="none" stroke="#bfbfbf" points="0,-226 62,-226 "/>
<text text-anchor="middle" x="31" y="-214" font-family="Helvetica,sans-Serif" font-size="10.00"> </text>
<polyline fill="none" stroke="#bfbfbf" points="0,-207 62,-207 "/>
<text text-anchor="middle" x="31" y="-195" font-family="Helvetica,sans-Serif" font-size="10.00"> </text>
</a>
</g>
</g>
<!-- Node2&#45;&gt;Node1 -->
<g id="edge1" class="edge">
<title>Node2&#45;&gt;Node1</title>
<path fill="none" stroke="midnightblue" d="M47.94,-178.59C55.52,-162.09 64.65,-142.19 73.19,-123.6"/>
<polygon fill="none" stroke="midnightblue" points="44.67,-177.33 43.68,-187.88 51.03,-180.26 44.67,-177.33"/>
</g>
<!-- Node3 -->
<g id="node3" class="node">
<title>Node3</title>
<g id="a_node3"><a xlink:href="interface_e_f___core_dapper_tuto_1_1_domain_1_1_interfaces_1_1_i_application_db_context.html" target="_top" xlink:title="Sets the DB Context">
<polygon fill="white" stroke="black" points="80.5,-160.5 80.5,-272.5 263.5,-272.5 263.5,-160.5 80.5,-160.5"/>
<text text-anchor="middle" x="172" y="-260.5" font-family="Helvetica,sans-Serif" font-size="10.00">IApplicationDbContext</text>
<polyline fill="none" stroke="black" points="80.5,-253.5 263.5,-253.5 "/>
<text text-anchor="start" x="88.5" y="-241.5" font-family="Helvetica,sans-Serif" font-size="10.00">+ IDbConnection Connection</text>
<text text-anchor="start" x="88.5" y="-230.5" font-family="Helvetica,sans-Serif" font-size="10.00">+ DatabaseFacade Database</text>
<text text-anchor="start" x="88.5" y="-219.5" font-family="Helvetica,sans-Serif" font-size="10.00">+ DbSet&lt; Employee &gt; Employees</text>
<text text-anchor="start" x="88.5" y="-208.5" font-family="Helvetica,sans-Serif" font-size="10.00">+ DbSet&lt; Department &gt;</text>
<text text-anchor="start" x="88.5" y="-197.5" font-family="Helvetica,sans-Serif" font-size="10.00"> Departments</text>
<polyline fill="none" stroke="black" points="80.5,-190.5 263.5,-190.5 "/>
<text text-anchor="start" x="88.5" y="-178.5" font-family="Helvetica,sans-Serif" font-size="10.00">+ Task&lt; int &gt; SaveChangesAsync</text>
<text text-anchor="start" x="88.5" y="-167.5" font-family="Helvetica,sans-Serif" font-size="10.00">(CancellationToken cancellationToken)</text>
</a>
</g>
</g>
<!-- Node3&#45;&gt;Node1 -->
<g id="edge2" class="edge">
<title>Node3&#45;&gt;Node1</title>
<path fill="none" stroke="midnightblue" d="M142.14,-151.36C137.87,-142.19 133.48,-132.77 129.24,-123.66"/>
<polygon fill="none" stroke="midnightblue" points="138.97,-152.86 146.37,-160.44 145.32,-149.9 138.97,-152.86"/>
</g>
</g>
</svg>
