<?xml version="1.0" encoding="UTF-8" standalone="no"?>
<!DOCTYPE svg PUBLIC "-//W3C//DTD SVG 1.1//EN"
 "http://www.w3.org/Graphics/SVG/1.1/DTD/svg11.dtd">
<!-- Generated by graphviz version 2.48.0 (20210717.1556)
 -->
<!-- Title: Graphical Class Hierarchy Pages: 1 -->
<svg width="364pt" height="78pt"
 viewBox="0.00 0.00 364.00 77.50" xmlns="http://www.w3.org/2000/svg" xmlns:xlink="http://www.w3.org/1999/xlink">
<g id="graph0" class="graph" transform="scale(1 1) rotate(0) translate(4 73.5)">
<title>Graphical Class Hierarchy</title>
<polygon fill="white" stroke="transparent" points="-4,4 -4,-73.5 360,-73.5 360,4 -4,4"/>
<!-- Node5 -->
<g id="node1" class="node">
<title>Node5</title>
<g id="a_node1"><a xlink:title=" ">
<polygon fill="white" stroke="#bfbfbf" points="48,-50 48,-69 110,-69 110,-50 48,-50"/>
<text text-anchor="middle" x="79" y="-57" font-family="Helvetica,sans-Serif" font-size="10.00">DbContext</text>
</a>
</g>
</g>
<!-- Node0 -->
<g id="node2" class="node">
<title>Node0</title>
<g id="a_node2"><a xlink:href="class_e_f___core_dapper_tuto_1_1_persistence_1_1_contexts_1_1_application_db_context.html" target="_top" xlink:title="Defines the parameters of the context to the DB">
<polygon fill="white" stroke="black" points="194,-22.5 194,-52.5 356,-52.5 356,-22.5 194,-22.5"/>
<text text-anchor="start" x="202" y="-40.5" font-family="Helvetica,sans-Serif" font-size="10.00">EF_CoreDapperTuto.Persistence.</text>
<text text-anchor="middle" x="275" y="-29.5" font-family="Helvetica,sans-Serif" font-size="10.00">Contexts.ApplicationDbContext</text>
</a>
</g>
</g>
<!-- Node5&#45;&gt;Node0 -->
<g id="edge1" class="edge">
<title>Node5&#45;&gt;Node0</title>
<path fill="none" stroke="midnightblue" d="M120.27,-54.93C141.53,-52.52 168.39,-49.48 193.69,-46.61"/>
<polygon fill="midnightblue" stroke="midnightblue" points="119.85,-51.46 110.31,-56.06 120.64,-58.41 119.85,-51.46"/>
</g>
<!-- Node10 -->
<g id="node3" class="node">
<title>Node10</title>
<g id="a_node3"><a xlink:href="interface_e_f___core_dapper_tuto_1_1_domain_1_1_interfaces_1_1_i_application_db_context.html" target="_top" xlink:title="Sets the DB Context">
<polygon fill="white" stroke="black" points="0,-0.5 0,-30.5 158,-30.5 158,-0.5 0,-0.5"/>
<text text-anchor="start" x="8" y="-18.5" font-family="Helvetica,sans-Serif" font-size="10.00">EF_CoreDapperTuto.Domain.</text>
<text text-anchor="middle" x="79" y="-7.5" font-family="Helvetica,sans-Serif" font-size="10.00">Interfaces.IApplicationDbContext</text>
</a>
</g>
</g>
<!-- Node10&#45;&gt;Node0 -->
<g id="edge2" class="edge">
<title>Node10&#45;&gt;Node0</title>
<path fill="none" stroke="midnightblue" d="M168.09,-25.49C176.69,-26.46 185.37,-27.45 193.88,-28.41"/>
<polygon fill="midnightblue" stroke="midnightblue" points="168.4,-22 158.07,-24.35 167.61,-28.96 168.4,-22"/>
</g>
</g>
</svg>
